<svg width="24" height="24" viewBox="0 0 24 24" fill="none" xmlns="http://www.w3.org/2000/svg">
<circle cx="12" cy="12" r="12" fill="white"/>
<g clip-path="url(#clip0)">
<path d="M17.4793 8.99174C17.4793 6.31405 14.6529 4 12.2397 4C9.82645 4 7 6.31405 7 8.99174C7 11.5537 12.2397 20.0165 12.2397 20.0165C12.2397 20.0165 17.4793 11.5537 17.4793 8.99174ZM9.03306 8.80992C9.03306 7.04132 10.4711 5.60331 12.2397 5.60331C14.0083 5.60331 15.4463 7.04132 15.4463 8.80992C15.4463 10.5785 14.0083 12.0165 12.2397 12.0165C10.4711 12.0165 9.03306 10.5785 9.03306 8.80992Z" fill="#3F3F3F"/>
</g>
<defs>
<clipPath id="clip0">
<rect width="10.4793" height="16" fill="white" transform="translate(7 4)"/>
</clipPath>
</defs>
</svg>
